<?xml version="1.0" standalone="no"?>
<!DOCTYPE svg PUBLIC "-//W3C//DTD SVG 20010904//EN"
 "http://www.w3.org/TR/2001/REC-SVG-20010904/DTD/svg10.dtd">
<svg version="1.0" xmlns="http://www.w3.org/2000/svg"
 width="583.000000pt" height="583.000000pt" viewBox="0 0 583.000000 583.000000"
 preserveAspectRatio="xMidYMid meet">
<metadata>
Created by potrace 1.14, written by Peter Selinger 2001-2017
</metadata>
<g transform="translate(0.000000,583.000000) scale(0.100000,-0.100000)"
fill="#000000" stroke="none">
<path d="M2815 5742 c-44 -27 -217 -126 -385 -222 -168 -95 -321 -183 -340
-196 -34 -22 -92 -55 -200 -115 -30 -16 -77 -43 -105 -60 -27 -16 -57 -32 -65
-36 -8 -4 -17 -10 -20 -13 -3 -4 -33 -23 -68 -41 -34 -19 -79 -44 -100 -56
-20 -13 -48 -27 -62 -33 -13 -6 -27 -15 -30 -19 -4 -7 -649 -381 -922 -535
l-107 -61 -1 -1445 0 -1445 463 -266 c254 -147 814 -470 1244 -718 430 -248
788 -451 795 -451 7 0 113 58 235 129 122 71 231 132 243 136 11 3 20 10 20
15 0 5 9 11 20 15 23 7 163 87 170 97 3 4 17 12 30 18 14 6 43 22 65 35 22 13
51 30 65 38 14 8 93 54 175 102 83 48 269 156 415 240 146 84 427 246 625 361
198 114 377 217 397 228 l38 21 -1 1445 0 1445 -312 179 c-172 99 -422 243
-557 321 -135 78 -508 294 -830 480 -322 186 -630 364 -686 396 -55 33 -107
59 -115 59 -8 -1 -50 -22 -94 -48z"/>
</g>
</svg>
